<mxfile host="app.diagrams.net" modified="2023-08-23T04:00:31.407Z" agent="Mozilla/5.0 (Macintosh; Intel Mac OS X 10_15_7) AppleWebKit/537.36 (KHTML, like Gecko) Chrome/115.0.0.0 Safari/537.36" etag="nbY24dBrT-u-4aY7wx-u" version="21.6.1" type="github">
  <diagram id="C5RBs43oDa-KdzZeNtuy" name="Page-1">
    <mxGraphModel dx="1804" dy="573" grid="1" gridSize="10" guides="1" tooltips="1" connect="1" arrows="1" fold="1" page="1" pageScale="1" pageWidth="827" pageHeight="1169" math="0" shadow="0">
      <root>
        <mxCell id="WIyWlLk6GJQsqaUBKTNV-0" />
        <mxCell id="WIyWlLk6GJQsqaUBKTNV-1" parent="WIyWlLk6GJQsqaUBKTNV-0" />
        <mxCell id="WIyWlLk6GJQsqaUBKTNV-2" value="" style="rounded=0;html=1;jettySize=auto;orthogonalLoop=1;fontSize=11;endArrow=block;endFill=0;endSize=8;strokeWidth=1;shadow=0;labelBackgroundColor=none;edgeStyle=orthogonalEdgeStyle;entryX=0.5;entryY=0;entryDx=0;entryDy=0;" parent="WIyWlLk6GJQsqaUBKTNV-1" source="WIyWlLk6GJQsqaUBKTNV-3" target="MkHjkow1rubKydk29wfE-2" edge="1">
          <mxGeometry relative="1" as="geometry">
            <mxPoint x="220" y="170" as="targetPoint" />
          </mxGeometry>
        </mxCell>
        <mxCell id="WIyWlLk6GJQsqaUBKTNV-3" value="Run script with an argument: CSV file" style="rounded=1;whiteSpace=wrap;html=1;fontSize=12;glass=0;strokeWidth=1;shadow=0;" parent="WIyWlLk6GJQsqaUBKTNV-1" vertex="1">
          <mxGeometry x="160" y="60" width="120" height="50" as="geometry" />
        </mxCell>
        <mxCell id="MkHjkow1rubKydk29wfE-8" style="edgeStyle=orthogonalEdgeStyle;rounded=0;orthogonalLoop=1;jettySize=auto;html=1;entryX=0.5;entryY=0;entryDx=0;entryDy=0;" edge="1" parent="WIyWlLk6GJQsqaUBKTNV-1" source="MkHjkow1rubKydk29wfE-0" target="MkHjkow1rubKydk29wfE-7">
          <mxGeometry relative="1" as="geometry" />
        </mxCell>
        <mxCell id="MkHjkow1rubKydk29wfE-0" value="Convert CSV to desired format" style="rounded=1;whiteSpace=wrap;html=1;fontSize=12;glass=0;strokeWidth=1;shadow=0;" vertex="1" parent="WIyWlLk6GJQsqaUBKTNV-1">
          <mxGeometry x="160" y="300" width="120" height="50" as="geometry" />
        </mxCell>
        <mxCell id="MkHjkow1rubKydk29wfE-19" style="edgeStyle=orthogonalEdgeStyle;rounded=0;orthogonalLoop=1;jettySize=auto;html=1;entryX=0.5;entryY=0;entryDx=0;entryDy=0;" edge="1" parent="WIyWlLk6GJQsqaUBKTNV-1" source="MkHjkow1rubKydk29wfE-1" target="MkHjkow1rubKydk29wfE-15">
          <mxGeometry relative="1" as="geometry" />
        </mxCell>
        <mxCell id="MkHjkow1rubKydk29wfE-1" value="Go to next row" style="rounded=1;whiteSpace=wrap;html=1;fontSize=12;glass=0;strokeWidth=1;shadow=0;" vertex="1" parent="WIyWlLk6GJQsqaUBKTNV-1">
          <mxGeometry x="170" y="660" width="100" height="50" as="geometry" />
        </mxCell>
        <mxCell id="MkHjkow1rubKydk29wfE-5" style="edgeStyle=orthogonalEdgeStyle;rounded=0;orthogonalLoop=1;jettySize=auto;html=1;entryX=0;entryY=0.5;entryDx=0;entryDy=0;" edge="1" parent="WIyWlLk6GJQsqaUBKTNV-1" source="MkHjkow1rubKydk29wfE-2" target="MkHjkow1rubKydk29wfE-4">
          <mxGeometry relative="1" as="geometry" />
        </mxCell>
        <mxCell id="MkHjkow1rubKydk29wfE-11" value="Fail" style="edgeLabel;html=1;align=center;verticalAlign=middle;resizable=0;points=[];" vertex="1" connectable="0" parent="MkHjkow1rubKydk29wfE-5">
          <mxGeometry x="-0.302" y="3" relative="1" as="geometry">
            <mxPoint x="9" y="3" as="offset" />
          </mxGeometry>
        </mxCell>
        <mxCell id="MkHjkow1rubKydk29wfE-6" style="edgeStyle=orthogonalEdgeStyle;rounded=0;orthogonalLoop=1;jettySize=auto;html=1;" edge="1" parent="WIyWlLk6GJQsqaUBKTNV-1" source="MkHjkow1rubKydk29wfE-2" target="MkHjkow1rubKydk29wfE-0">
          <mxGeometry relative="1" as="geometry" />
        </mxCell>
        <mxCell id="MkHjkow1rubKydk29wfE-12" value="Pass" style="edgeLabel;html=1;align=center;verticalAlign=middle;resizable=0;points=[];" vertex="1" connectable="0" parent="MkHjkow1rubKydk29wfE-6">
          <mxGeometry x="-0.339" relative="1" as="geometry">
            <mxPoint as="offset" />
          </mxGeometry>
        </mxCell>
        <mxCell id="MkHjkow1rubKydk29wfE-2" value="&lt;div style=&quot;text-align: left;&quot;&gt;&lt;span style=&quot;background-color: initial;&quot;&gt;Check:&lt;/span&gt;&lt;/div&gt;&lt;div style=&quot;text-align: left;&quot;&gt;&lt;span style=&quot;background-color: initial;&quot;&gt;- Arguments?&lt;/span&gt;&lt;/div&gt;&lt;div style=&quot;text-align: left;&quot;&gt;&lt;span style=&quot;background-color: initial;&quot;&gt;- File exists?&lt;/span&gt;&lt;/div&gt;" style="rhombus;whiteSpace=wrap;html=1;" vertex="1" parent="WIyWlLk6GJQsqaUBKTNV-1">
          <mxGeometry x="160" y="160" width="120" height="100" as="geometry" />
        </mxCell>
        <mxCell id="MkHjkow1rubKydk29wfE-36" style="edgeStyle=orthogonalEdgeStyle;rounded=0;orthogonalLoop=1;jettySize=auto;html=1;entryX=0;entryY=0.5;entryDx=0;entryDy=0;" edge="1" parent="WIyWlLk6GJQsqaUBKTNV-1" source="MkHjkow1rubKydk29wfE-4" target="MkHjkow1rubKydk29wfE-35">
          <mxGeometry relative="1" as="geometry" />
        </mxCell>
        <mxCell id="MkHjkow1rubKydk29wfE-4" value="Print error message" style="rounded=1;whiteSpace=wrap;html=1;fontSize=12;glass=0;strokeWidth=1;shadow=0;" vertex="1" parent="WIyWlLk6GJQsqaUBKTNV-1">
          <mxGeometry x="370" y="185" width="120" height="50" as="geometry" />
        </mxCell>
        <mxCell id="MkHjkow1rubKydk29wfE-9" style="edgeStyle=orthogonalEdgeStyle;rounded=0;orthogonalLoop=1;jettySize=auto;html=1;entryX=0.5;entryY=1;entryDx=0;entryDy=0;" edge="1" parent="WIyWlLk6GJQsqaUBKTNV-1" source="MkHjkow1rubKydk29wfE-7" target="MkHjkow1rubKydk29wfE-4">
          <mxGeometry relative="1" as="geometry" />
        </mxCell>
        <mxCell id="MkHjkow1rubKydk29wfE-10" value="Fail" style="edgeLabel;html=1;align=center;verticalAlign=middle;resizable=0;points=[];" vertex="1" connectable="0" parent="MkHjkow1rubKydk29wfE-9">
          <mxGeometry x="-0.7083" y="2" relative="1" as="geometry">
            <mxPoint as="offset" />
          </mxGeometry>
        </mxCell>
        <mxCell id="MkHjkow1rubKydk29wfE-25" style="edgeStyle=orthogonalEdgeStyle;rounded=0;orthogonalLoop=1;jettySize=auto;html=1;entryX=0.5;entryY=0;entryDx=0;entryDy=0;" edge="1" parent="WIyWlLk6GJQsqaUBKTNV-1" source="MkHjkow1rubKydk29wfE-7" target="MkHjkow1rubKydk29wfE-23">
          <mxGeometry relative="1" as="geometry" />
        </mxCell>
        <mxCell id="MkHjkow1rubKydk29wfE-26" value="Pass" style="edgeLabel;html=1;align=center;verticalAlign=middle;resizable=0;points=[];" vertex="1" connectable="0" parent="MkHjkow1rubKydk29wfE-25">
          <mxGeometry x="-0.4333" y="2" relative="1" as="geometry">
            <mxPoint as="offset" />
          </mxGeometry>
        </mxCell>
        <mxCell id="MkHjkow1rubKydk29wfE-7" value="&lt;div style=&quot;text-align: left;&quot;&gt;Check:&lt;/div&gt;&lt;div style=&quot;text-align: left;&quot;&gt;- Successfully converted?&lt;/div&gt;&lt;div style=&quot;text-align: left;&quot;&gt;&lt;br&gt;&lt;/div&gt;" style="rhombus;whiteSpace=wrap;html=1;" vertex="1" parent="WIyWlLk6GJQsqaUBKTNV-1">
          <mxGeometry x="140" y="390" width="160" height="110" as="geometry" />
        </mxCell>
        <mxCell id="MkHjkow1rubKydk29wfE-20" style="edgeStyle=orthogonalEdgeStyle;rounded=0;orthogonalLoop=1;jettySize=auto;html=1;entryX=0.5;entryY=0;entryDx=0;entryDy=0;" edge="1" parent="WIyWlLk6GJQsqaUBKTNV-1" source="MkHjkow1rubKydk29wfE-15" target="MkHjkow1rubKydk29wfE-18">
          <mxGeometry relative="1" as="geometry" />
        </mxCell>
        <mxCell id="MkHjkow1rubKydk29wfE-21" value="No" style="edgeLabel;html=1;align=center;verticalAlign=middle;resizable=0;points=[];" vertex="1" connectable="0" parent="MkHjkow1rubKydk29wfE-20">
          <mxGeometry x="-0.0988" y="4" relative="1" as="geometry">
            <mxPoint as="offset" />
          </mxGeometry>
        </mxCell>
        <mxCell id="MkHjkow1rubKydk29wfE-32" value="Yes" style="edgeStyle=orthogonalEdgeStyle;rounded=0;orthogonalLoop=1;jettySize=auto;html=1;" edge="1" parent="WIyWlLk6GJQsqaUBKTNV-1" source="MkHjkow1rubKydk29wfE-15">
          <mxGeometry relative="1" as="geometry">
            <mxPoint x="100" y="790" as="targetPoint" />
          </mxGeometry>
        </mxCell>
        <mxCell id="MkHjkow1rubKydk29wfE-15" value="Is this row in master CSV?" style="rhombus;whiteSpace=wrap;html=1;" vertex="1" parent="WIyWlLk6GJQsqaUBKTNV-1">
          <mxGeometry x="170" y="750" width="100" height="80" as="geometry" />
        </mxCell>
        <mxCell id="MkHjkow1rubKydk29wfE-22" style="edgeStyle=orthogonalEdgeStyle;rounded=0;orthogonalLoop=1;jettySize=auto;html=1;entryX=0;entryY=0.5;entryDx=0;entryDy=0;" edge="1" parent="WIyWlLk6GJQsqaUBKTNV-1" source="MkHjkow1rubKydk29wfE-18" target="MkHjkow1rubKydk29wfE-23">
          <mxGeometry relative="1" as="geometry">
            <Array as="points">
              <mxPoint x="-50" y="905" />
              <mxPoint x="-50" y="580" />
            </Array>
          </mxGeometry>
        </mxCell>
        <mxCell id="MkHjkow1rubKydk29wfE-18" value="Append to Master CSV" style="rounded=1;whiteSpace=wrap;html=1;fontSize=12;glass=0;strokeWidth=1;shadow=0;" vertex="1" parent="WIyWlLk6GJQsqaUBKTNV-1">
          <mxGeometry x="160" y="880" width="120" height="50" as="geometry" />
        </mxCell>
        <mxCell id="MkHjkow1rubKydk29wfE-24" style="edgeStyle=orthogonalEdgeStyle;rounded=0;orthogonalLoop=1;jettySize=auto;html=1;entryX=0.5;entryY=0;entryDx=0;entryDy=0;" edge="1" parent="WIyWlLk6GJQsqaUBKTNV-1" source="MkHjkow1rubKydk29wfE-23" target="MkHjkow1rubKydk29wfE-1">
          <mxGeometry relative="1" as="geometry" />
        </mxCell>
        <mxCell id="MkHjkow1rubKydk29wfE-27" value="Yes" style="edgeLabel;html=1;align=center;verticalAlign=middle;resizable=0;points=[];" vertex="1" connectable="0" parent="MkHjkow1rubKydk29wfE-24">
          <mxGeometry x="-0.2452" y="1" relative="1" as="geometry">
            <mxPoint as="offset" />
          </mxGeometry>
        </mxCell>
        <mxCell id="MkHjkow1rubKydk29wfE-29" style="edgeStyle=orthogonalEdgeStyle;rounded=0;orthogonalLoop=1;jettySize=auto;html=1;entryX=0;entryY=0.5;entryDx=0;entryDy=0;" edge="1" parent="WIyWlLk6GJQsqaUBKTNV-1" source="MkHjkow1rubKydk29wfE-23" target="MkHjkow1rubKydk29wfE-28">
          <mxGeometry relative="1" as="geometry" />
        </mxCell>
        <mxCell id="MkHjkow1rubKydk29wfE-30" value="No" style="edgeLabel;html=1;align=center;verticalAlign=middle;resizable=0;points=[];" vertex="1" connectable="0" parent="MkHjkow1rubKydk29wfE-29">
          <mxGeometry x="0.3933" y="-3" relative="1" as="geometry">
            <mxPoint x="-30" y="-3" as="offset" />
          </mxGeometry>
        </mxCell>
        <mxCell id="MkHjkow1rubKydk29wfE-23" value="Any more rows?" style="rhombus;whiteSpace=wrap;html=1;" vertex="1" parent="WIyWlLk6GJQsqaUBKTNV-1">
          <mxGeometry x="170" y="540" width="100" height="80" as="geometry" />
        </mxCell>
        <mxCell id="MkHjkow1rubKydk29wfE-37" style="edgeStyle=orthogonalEdgeStyle;rounded=0;orthogonalLoop=1;jettySize=auto;html=1;entryX=0.5;entryY=1;entryDx=0;entryDy=0;" edge="1" parent="WIyWlLk6GJQsqaUBKTNV-1" source="MkHjkow1rubKydk29wfE-28" target="MkHjkow1rubKydk29wfE-35">
          <mxGeometry relative="1" as="geometry" />
        </mxCell>
        <mxCell id="MkHjkow1rubKydk29wfE-28" value="Print out summary details in terminal and in text file" style="rounded=1;whiteSpace=wrap;html=1;fontSize=12;glass=0;strokeWidth=1;shadow=0;" vertex="1" parent="WIyWlLk6GJQsqaUBKTNV-1">
          <mxGeometry x="370" y="555" width="130" height="50" as="geometry" />
        </mxCell>
        <mxCell id="MkHjkow1rubKydk29wfE-34" style="edgeStyle=orthogonalEdgeStyle;rounded=0;orthogonalLoop=1;jettySize=auto;html=1;" edge="1" parent="WIyWlLk6GJQsqaUBKTNV-1" source="MkHjkow1rubKydk29wfE-33">
          <mxGeometry relative="1" as="geometry">
            <mxPoint x="-50" y="790" as="targetPoint" />
          </mxGeometry>
        </mxCell>
        <mxCell id="MkHjkow1rubKydk29wfE-33" value="Print this out to make note" style="rounded=1;whiteSpace=wrap;html=1;fontSize=12;glass=0;strokeWidth=1;shadow=0;" vertex="1" parent="WIyWlLk6GJQsqaUBKTNV-1">
          <mxGeometry y="765" width="100" height="50" as="geometry" />
        </mxCell>
        <mxCell id="MkHjkow1rubKydk29wfE-35" value="End" style="rounded=1;whiteSpace=wrap;html=1;fontSize=12;glass=0;strokeWidth=1;shadow=0;" vertex="1" parent="WIyWlLk6GJQsqaUBKTNV-1">
          <mxGeometry x="540" y="185" width="120" height="50" as="geometry" />
        </mxCell>
      </root>
    </mxGraphModel>
  </diagram>
</mxfile>
